<?xml version="1.0" encoding="utf-8"?>
<!-- Generator: Adobe Illustrator 22.1.0, SVG Export Plug-In . SVG Version: 6.00 Build 0)  -->
<svg version="1.1" id="Layer_1" xmlns="http://www.w3.org/2000/svg" xmlns:xlink="http://www.w3.org/1999/xlink" x="0px" y="0px"
	 viewBox="0 0 830 330" style="enable-background:new 0 0 830 330;" xml:space="preserve">
<style type="text/css">
	.st0{fill:#FFFFFF;}
	.st1{font-family:'AvenirNext-HeavyItalic';}
	.st2{font-size:27.4469px;}
	.st3{fill:#A3D8C6;}
	.st4{fill:#0085B6;}
	.st5{fill:#6C4FC2;}
	.st6{clip-path:url(#SVGID_2_);fill:#FFFFFF;}
	.st7{font-size:164.8628px;}
</style>
<text transform="matrix(1 0 0 1 71.0824 208.75)"><tspan x="0" y="0" class="st0 st1 st2">% OF THE</tspan><tspan x="28.3" y="32.9" class="st0 st1 st2">VOTE</tspan></text>
<text transform="matrix(1 0 0 1 579.4714 208.7495)"><tspan x="0" y="0" class="st0 st1 st2">% OF THE </tspan><tspan x="25.9" y="32.9" class="st0 st1 st2">SEATS</tspan></text>
<path class="st0" d="M341.5,302.3l-17.8,16.8c-0.8,0.7-2.1,0.2-2.1-0.9V131.4c0-1.6,0.6-3.1,1.8-4.1l16.4-15.5
	c0.8-0.7,2.1-0.2,2.1,0.9v188.8C341.9,301.8,341.7,302.1,341.5,302.3z"/>
<path class="st0" d="M339.4,103.9h-76.6c-0.3,0-0.5,0.1-0.7,0.2l-29.5,19.5c-1.1,0.7-0.6,2.4,0.7,2.4h83.5c0.3,0,0.6-0.1,0.9-0.3
	l22.5-19.5C341.2,105.5,340.6,103.9,339.4,103.9z M304,114.4h-30.4c-2.1,0-3.7-0.9-3.7-2c0-1.1,1.7-2,3.7-2H304c2.1,0,3.7,0.9,3.7,2
	C307.7,113.5,306,114.4,304,114.4z"/>
<path class="st3" d="M266.4,91.7l10.8-12.1c0.8-0.9,1.9-1.4,3.1-1.5c1.1-0.1,2.3,0.3,3.2,1.1L304,97.4c1.8,1.6,2,4.5,0.4,6.3
	l-10.8,12.1c-0.8,0.9-1.9,1.4-3.1,1.5c-1.1,0.1-2.3-0.3-3.2-1.1L266.8,98C264.9,96.3,264.8,93.5,266.4,91.7z"/>
<path class="st0" d="M280.6,119.8c2.7,2.4,6.2,3.5,9.5,3.3c3.4-0.2,6.7-1.7,9.1-4.4l3.8-4.3h-28.4L280.6,119.8z"/>
<rect x="231.9" y="130.1" class="st4" width="85.3" height="55.3"/>
<rect x="231.9" y="185.3" class="st5" width="85.3" height="60.5"/>
<rect x="231.9" y="244.9" class="st3" width="85.3" height="75.4"/>
<rect x="543.7" y="216.1" transform="matrix(-1 -1.224647e-16 1.224647e-16 -1 1106.675 440.1458)" class="st5" width="19.2" height="7.9"/>
<rect x="521.1" y="216.1" transform="matrix(-1 -1.224647e-16 1.224647e-16 -1 1061.3947 440.1458)" class="st5" width="19.2" height="7.9"/>
<rect x="498.5" y="216.1" transform="matrix(-1 -1.224647e-16 1.224647e-16 -1 1016.1142 440.1458)" class="st5" width="19.2" height="7.9"/>
<rect x="475.8" y="216.1" transform="matrix(-1 -1.224647e-16 1.224647e-16 -1 970.8337 440.1458)" class="st5" width="19.2" height="7.9"/>
<rect x="543.7" y="206.5" transform="matrix(-1 -1.224647e-16 1.224647e-16 -1 1106.675 420.9702)" class="st5" width="19.2" height="7.9"/>
<rect x="521.1" y="206.5" transform="matrix(-1 -1.224647e-16 1.224647e-16 -1 1061.3947 420.9702)" class="st5" width="19.2" height="7.9"/>
<rect x="498.5" y="206.5" transform="matrix(-1 -1.224647e-16 1.224647e-16 -1 1016.1142 420.9702)" class="st5" width="19.2" height="7.9"/>
<rect x="475.8" y="206.5" transform="matrix(-1 -1.224647e-16 1.224647e-16 -1 970.8337 420.9702)" class="st5" width="19.2" height="7.9"/>
<rect x="543.7" y="196.9" transform="matrix(-1 -1.224647e-16 1.224647e-16 -1 1106.675 401.7945)" class="st5" width="19.2" height="7.9"/>
<rect x="521.1" y="196.9" transform="matrix(-1 -1.224647e-16 1.224647e-16 -1 1061.3947 401.7945)" class="st5" width="19.2" height="7.9"/>
<rect x="498.5" y="196.9" transform="matrix(-1 -1.224647e-16 1.224647e-16 -1 1016.1142 401.7945)" class="st5" width="19.2" height="7.9"/>
<rect x="475.8" y="196.9" transform="matrix(-1 -1.224647e-16 1.224647e-16 -1 970.8337 401.7945)" class="st5" width="19.2" height="7.9"/>
<rect x="543.7" y="187.3" transform="matrix(-1 -1.224647e-16 1.224647e-16 -1 1106.675 382.6189)" class="st5" width="19.2" height="7.9"/>
<rect x="521.1" y="187.3" transform="matrix(-1 -1.224647e-16 1.224647e-16 -1 1061.3947 382.6189)" class="st5" width="19.2" height="7.9"/>
<rect x="498.5" y="187.3" transform="matrix(-1 -1.224647e-16 1.224647e-16 -1 1016.1142 382.6189)" class="st5" width="19.2" height="7.9"/>
<rect x="475.8" y="187.3" transform="matrix(-1 -1.224647e-16 1.224647e-16 -1 970.8337 382.6189)" class="st5" width="19.2" height="7.9"/>
<rect x="543.7" y="177.8" transform="matrix(-1 -1.224647e-16 1.224647e-16 -1 1106.675 363.4432)" class="st4" width="19.2" height="7.9"/>
<rect x="521.1" y="177.8" transform="matrix(-1 -1.224647e-16 1.224647e-16 -1 1061.3947 363.4432)" class="st4" width="19.2" height="7.9"/>
<rect x="498.5" y="177.8" transform="matrix(-1 -1.224647e-16 1.224647e-16 -1 1016.1142 363.4432)" class="st4" width="19.2" height="7.9"/>
<rect x="475.8" y="177.8" transform="matrix(-1 -1.224647e-16 1.224647e-16 -1 970.8337 363.4432)" class="st4" width="19.2" height="7.9"/>
<rect x="543.7" y="168.2" transform="matrix(-1 -1.224647e-16 1.224647e-16 -1 1106.675 344.2676)" class="st4" width="19.2" height="7.9"/>
<rect x="521.1" y="168.2" transform="matrix(-1 -1.224647e-16 1.224647e-16 -1 1061.3947 344.2676)" class="st4" width="19.2" height="7.9"/>
<rect x="498.5" y="168.2" transform="matrix(-1 -1.224647e-16 1.224647e-16 -1 1016.1142 344.2676)" class="st4" width="19.2" height="7.9"/>
<rect x="475.8" y="168.2" transform="matrix(-1 -1.224647e-16 1.224647e-16 -1 970.8337 344.2676)" class="st4" width="19.2" height="7.9"/>
<rect x="543.7" y="158.6" transform="matrix(-1 -1.224647e-16 1.224647e-16 -1 1106.675 325.0919)" class="st4" width="19.2" height="7.9"/>
<rect x="521.1" y="158.6" transform="matrix(-1 -1.224647e-16 1.224647e-16 -1 1061.3947 325.0919)" class="st4" width="19.2" height="7.9"/>
<rect x="498.5" y="158.6" transform="matrix(-1 -1.224647e-16 1.224647e-16 -1 1016.1142 325.0919)" class="st4" width="19.2" height="7.9"/>
<rect x="475.8" y="158.6" transform="matrix(-1 -1.224647e-16 1.224647e-16 -1 970.8337 325.0919)" class="st4" width="19.2" height="7.9"/>
<rect x="543.7" y="149" transform="matrix(-1 -1.224647e-16 1.224647e-16 -1 1106.675 305.9163)" class="st4" width="19.2" height="7.9"/>
<rect x="521.1" y="149" transform="matrix(-1 -1.224647e-16 1.224647e-16 -1 1061.3947 305.9163)" class="st4" width="19.2" height="7.9"/>
<rect x="498.5" y="149" transform="matrix(-1 -1.224647e-16 1.224647e-16 -1 1016.1142 305.9163)" class="st4" width="19.2" height="7.9"/>
<rect x="475.8" y="149" transform="matrix(-1 -1.224647e-16 1.224647e-16 -1 970.8337 305.9163)" class="st4" width="19.2" height="7.9"/>
<rect x="543.7" y="139.4" transform="matrix(-1 -1.224647e-16 1.224647e-16 -1 1106.675 286.7406)" class="st4" width="19.2" height="7.9"/>
<rect x="521.1" y="139.4" transform="matrix(-1 -1.224647e-16 1.224647e-16 -1 1061.3947 286.7406)" class="st4" width="19.2" height="7.9"/>
<rect x="498.5" y="139.4" transform="matrix(-1 -1.224647e-16 1.224647e-16 -1 1016.1142 286.7406)" class="st4" width="19.2" height="7.9"/>
<rect x="475.8" y="139.4" transform="matrix(-1 -1.224647e-16 1.224647e-16 -1 970.8337 286.7406)" class="st4" width="19.2" height="7.9"/>
<rect x="543.7" y="129.8" transform="matrix(-1 -1.224647e-16 1.224647e-16 -1 1106.675 267.565)" class="st4" width="19.2" height="7.9"/>
<rect x="521.1" y="129.8" transform="matrix(-1 -1.224647e-16 1.224647e-16 -1 1061.3947 267.565)" class="st4" width="19.2" height="7.9"/>
<rect x="498.5" y="129.8" transform="matrix(-1 -1.224647e-16 1.224647e-16 -1 1016.1142 267.565)" class="st4" width="19.2" height="7.9"/>
<rect x="475.8" y="129.8" transform="matrix(-1 -1.224647e-16 1.224647e-16 -1 970.8337 267.565)" class="st4" width="19.2" height="7.9"/>
<rect x="475.3" y="225.7" class="st5" width="19.2" height="7.9"/>
<rect x="498" y="225.7" class="st5" width="19.2" height="7.9"/>
<rect x="520.6" y="225.7" class="st5" width="19.2" height="7.9"/>
<rect x="543.2" y="225.7" class="st5" width="19.2" height="7.9"/>
<rect x="475.3" y="235.3" class="st5" width="19.2" height="7.9"/>
<rect x="498" y="235.3" class="st5" width="19.2" height="7.9"/>
<rect x="520.6" y="235.3" class="st5" width="19.2" height="7.9"/>
<rect x="543.2" y="235.3" class="st5" width="19.2" height="7.9"/>
<rect x="475.3" y="244.9" class="st3" width="19.2" height="7.9"/>
<rect x="498" y="244.9" class="st3" width="19.2" height="7.9"/>
<rect x="520.6" y="244.9" class="st3" width="19.2" height="7.9"/>
<rect x="543.2" y="244.9" class="st3" width="19.2" height="7.9"/>
<rect x="475.3" y="254.5" class="st3" width="19.2" height="7.9"/>
<rect x="498" y="254.5" class="st3" width="19.2" height="7.9"/>
<rect x="520.6" y="254.5" class="st3" width="19.2" height="7.9"/>
<rect x="543.2" y="254.5" class="st3" width="19.2" height="7.9"/>
<rect x="475.3" y="264" class="st3" width="19.2" height="7.9"/>
<rect x="498" y="264" class="st3" width="19.2" height="7.9"/>
<rect x="520.6" y="264" class="st3" width="19.2" height="7.9"/>
<rect x="543.2" y="264" class="st3" width="19.2" height="7.9"/>
<rect x="475.3" y="273.6" class="st3" width="19.2" height="7.9"/>
<rect x="498" y="273.6" class="st3" width="19.2" height="7.9"/>
<rect x="520.6" y="273.6" class="st3" width="19.2" height="7.9"/>
<rect x="543.2" y="273.6" class="st3" width="19.2" height="7.9"/>
<rect x="475.3" y="283.2" class="st3" width="19.2" height="7.9"/>
<rect x="498" y="283.2" class="st3" width="19.2" height="7.9"/>
<rect x="520.6" y="283.2" class="st3" width="19.2" height="7.9"/>
<rect x="543.2" y="283.2" class="st3" width="19.2" height="7.9"/>
<rect x="475.3" y="292.8" class="st3" width="19.2" height="7.9"/>
<rect x="498" y="292.8" class="st3" width="19.2" height="7.9"/>
<rect x="520.6" y="292.8" class="st3" width="19.2" height="7.9"/>
<rect x="543.2" y="292.8" class="st3" width="19.2" height="7.9"/>
<rect x="475.3" y="302.4" class="st3" width="19.2" height="7.9"/>
<rect x="498" y="302.4" class="st3" width="19.2" height="7.9"/>
<rect x="520.6" y="302.4" class="st3" width="19.2" height="7.9"/>
<rect x="543.2" y="302.4" class="st3" width="19.2" height="7.9"/>
<rect x="475.3" y="312" class="st3" width="19.2" height="7.9"/>
<rect x="498" y="312" class="st3" width="19.2" height="7.9"/>
<rect x="520.6" y="312" class="st3" width="19.2" height="7.9"/>
<rect x="543.3" y="312" class="st3" width="19.2" height="7.9"/>
<g>
	<defs>
		<rect id="SVGID_1_" x="475.3" y="8.1" width="87.1" height="121.7"/>
	</defs>
	<clipPath id="SVGID_2_">
		<use xlink:href="#SVGID_1_"  style="overflow:visible;"/>
	</clipPath>
	<path class="st6" d="M656.4,77.9v-3.7h0.1c0,0,0.2-0.1,0.2-0.3c0-0.2-0.2-0.3-0.2-0.3h-0.1c0-2.7-2.1-5.6-4.9-6c0,0,0,0,0,0v-0.1
		c0,0,0,0,0-0.1c0,0,0-0.1,0-0.1v-0.2h-0.1v-0.5h0.1v-0.2h0.1c0,0,0,0,0-0.1c0,0,0-0.1,0-0.1h0c0-0.3-0.2-0.7-0.5-0.8v-0.1h-0.4v0.1
		c-0.2,0.1-0.4,0.4-0.5,0.8h0c0,0,0,0,0,0.1c0,0,0,0.1,0,0.1h0.1v0.2h0v0.5h0v0.2h0c0,0,0,0,0,0.1s0,0.1,0,0.1h0v0.1h0
		c0,0,0,0,0,0.1c-2.7,0.3-4.9,3.2-4.9,6h-0.1c0,0-0.2,0.1-0.2,0.3c0,0.2,0.2,0.3,0.2,0.3h0.1v3.7h-0.7l-12.6-3.6l-12.3,3.6h-0.7
		v-3.7h0.1c0,0,0.2-0.1,0.2-0.3c0-0.2-0.2-0.3-0.2-0.3h-0.1c0-2.7-2.1-5.6-4.9-6c0,0,0,0,0,0v-0.1c0,0,0,0,0-0.1c0,0,0-0.1,0-0.1
		v-0.2h-0.1v-0.5h0.1v-0.2h0.1c0,0,0,0,0-0.1c0,0,0-0.1,0-0.1h0c0-0.3-0.2-0.7-0.5-0.8v-0.1h-0.4v0.1c-0.2,0.1-0.4,0.4-0.5,0.8h0
		c0,0,0,0,0,0.1c0,0,0,0.1,0,0.1h0.1v0.2h0v0.5h0v0.2h0c0,0,0,0,0,0.1s0,0.1,0,0.1h0v0.1h0c0,0,0,0,0,0.1c-2.7,0.3-4.9,3.2-4.9,6
		h-0.1c0,0-0.2,0.1-0.2,0.3c0,0.2,0.2,0.3,0.2,0.3h0.1v3.7h-1.5v0.1l0.4,0.6l0.2,0.3h0V81h-44.6v-6.1l-3.5,1.7h-13l0.1-7.3h0
		l0.2-0.3l0.4-0.7h-0.2l0,0h-1.1v-4.7h0.1c0,0,0.2-0.1,0.2-0.3c0-0.2-0.2-0.3-0.2-0.3h0c0-0.1-0.1-0.1-0.1-0.1c0-1.4-0.7-2.9-1.6-4
		c-0.9-1.1-2-1.8-3.4-2c0,0,0,0,0,0v-0.1c0,0,0,0,0-0.1c0,0,0-0.1,0-0.1v-0.2h-0.1v-0.5h0.1v-0.2h0.1c0,0,0,0,0-0.1c0,0,0-0.1,0-0.1
		h0c0-0.3-0.2-0.7-0.5-0.8v-0.1H540v0.1c-0.2,0.1-0.4,0.4-0.5,0.8h0c0,0,0,0,0,0.1c0,0,0,0.1,0,0.1h0.1v0.2h0v0.4h-0.8v-3.1h0v0h0.2
		c0,0,0.2-0.1,0.2-0.3c0-0.2-0.2-0.3-0.2-0.3h-0.2v-1.8h0c0-9.2-7.5-18-17.1-19.4c0,0,0-0.1,0-0.1c0,0,0,0,0-0.1c0,0,0,0,0-0.1
		c0-0.2-0.1-0.3-0.1-0.3v-0.3c0,0,0.1-0.1,0.1-0.3c0-0.2-0.1-0.3-0.1-0.3v-0.8h-0.2v-1.5h0.2v-0.9h0.5c0,0,0.1-0.1,0.1-0.3
		c0-0.2-0.1-0.3-0.1-0.3c0,0,0.1-0.1,0.1-0.3c0-0.2-0.1-0.3-0.1-0.3h0c-0.1-1.5-1.1-3-2.3-3.4v-0.2h0v-0.3h-0.2c0-0.1,0-0.1,0-0.2
		c0-0.1,0-0.1,0-0.2c0,0,0.1,0,0.1,0c0,0,0,0,0,0c0.1,0,0.1,0,0.1-0.1c0-0.1-0.1,0-0.1-0.1c0,0,0,0,0.1-0.1l0,0.1
		c0.2-0.1,0.3-0.2,0.3-0.4c0,0,0-0.1,0-0.1c0,0,0-0.1,0-0.1c0-0.1,0-0.3-0.3-0.4c0,0-0.2-0.1-0.3-0.2c0,0,0,0,0,0c0,0,0,0,0,0
		s0,0,0,0c0,0,0,0,0,0c0,0,0,0,0,0c0.1-0.1,0.2-0.2,0.3-0.4c0,0,0.1,0,0.1,0c0.1,0,0.2-0.2,0.1-0.3c0-0.1,0-0.1-0.1-0.2
		c0-0.1,0-0.1,0-0.2c0,0,0-0.1,0-0.1c0-0.1-0.1-0.3-0.2-0.4c0-0.1-0.1-0.1-0.2-0.2c-0.1-0.1-0.2-0.2-0.4-0.2c-0.1,0-0.1,0-0.2,0h0v0
		c-0.1,0-0.1,0-0.2,0c-0.2,0-0.4,0.2-0.4,0.3c-0.1,0.1-0.2,0.2-0.2,0.3c0,0.2,0,0.4,0,0.5c0,0.4,0.1,0.8,0.4,0.9c0,0,0,0,0,0
		c0,0,0,0,0,0c0,0,0,0,0,0c0,0,0,0,0,0c0,0,0,0,0,0c-0.1,0-0.2,0.1-0.3,0.2c0,0,0,0,0,0c-0.3,0.2-0.4,0.4-0.4,0.5
		c0,0.2,0.1,0.3,0.3,0.4l0-0.1c0,0,0.1,0.1,0.1,0.1c0.1,0,0,0-0.1,0.1c0,0,0.1,0.1,0.1,0.1c0,0,0,0,0,0.1c0,0,0,0,0.1,0
		c0,0,0,0.1,0,0.1c0,0,0,0,0,0c0,0.2,0,0.4,0,0.5c0,0,0,0,0.1,0c0,0,0,0,0,0h-0.4v0.5c-1.2,0.5-2.1,2.1-2.3,3.7h0
		c0,0-0.1,0.1-0.1,0.3c0,0.2,0.1,0.3,0.1,0.3h0.5v0.9h0.2v2.4h-0.2v0.9h0c0,0-0.1,0.1-0.1,0.3c0,0.2,0.1,0.3,0.1,0.3h0v0.5h0
		c0,0-0.1,0.1-0.1,0.3c0,0.1,0,0.1,0,0.1c-9.3,1.5-16.6,10.6-17,20.1h-0.2c0,0-0.2,0.1-0.2,0.3c0,0.2,0.2,0.3,0.2,0.3h0.2l0,0h-0.1
		v3.6c0,0,0,0-0.1,0c-0.1,0-0.2,0-0.3,0c0,0-0.1,0-0.1,0v-0.1c0,0,0,0,0,0c0,0,0,0,0-0.1c0,0,0,0,0-0.1c0,0,0,0,0,0v-0.1
		c0,0,0,0,0,0c0,0,0,0,0,0c0,0,0-0.1,0-0.1c0,0,0,0,0,0v-0.2h0v-0.5h0v-0.2h0.1c0,0,0,0,0-0.1c0,0,0-0.1,0-0.1h0
		c0-0.2-0.1-0.3-0.1-0.5l0,0c-0.1-0.1-0.2-0.2-0.3-0.3v-0.1h-0.3v0.1c-0.2,0.1-0.4,0.4-0.5,0.8h0c0,0,0,0,0,0.1c0,0,0,0.1,0,0.1h0.1
		v0.2h0v0.5h0v0.2h0c0,0,0,0,0,0.1s0,0.1,0,0.1h0v0.1h0c0,0,0,0,0,0.1c0,0,0,0.1,0,0.1h0v0.1c-2.7,0.4-4.7,3.2-4.7,5.9H493
		c0,0-0.2,0.1-0.2,0.3c0,0.2,0.2,0.3,0.2,0.3h0.1v4.7h-1.2v0.1l0.4,0.6l0.2,0.3h0l-0.1,7.5h-13.9l-3.3-1.6v6h-44.5v-2.1h0l0.2-0.3
		l0.4-0.7h-1.7v-3.7h0.1c0,0,0.2-0.1,0.2-0.3c0-0.2-0.2-0.3-0.2-0.3h-0.1c0-2.7-2.1-5.6-4.9-6c0,0,0,0,0,0v-0.1c0,0,0,0,0-0.1
		c0,0,0-0.1,0-0.1v-0.2h-0.1v-0.5h0.1v-0.2h0.1c0,0,0,0,0-0.1c0,0,0-0.1,0-0.1h0c0-0.3-0.2-0.7-0.5-0.8v-0.1H424v0.1
		c-0.3,0.1-0.4,0.4-0.5,0.8h0c0,0,0,0,0,0.1c0,0,0,0.1,0,0.1h0.1v0.2h0.1v0.5h-0.1v0.2c0,0,0,0,0,0.1c0,0,0,0.1,0,0.1v0.1
		c0,0,0,0,0,0c-2.7,0.3-4.9,3.2-4.9,6h-0.1c0,0-0.2,0.1-0.2,0.3c0,0.2,0.2,0.3,0.2,0.3h0.1v3.7H418l-12.3-3.6l-12.6,3.6h-0.6v-3.5
		h0.1c0,0,0.2-0.1,0.2-0.3c0-0.2-0.1-0.2-0.1-0.3c0-0.2-0.1-0.3-0.1-0.3h0c0-0.8-0.3-1.7-0.6-2.5c-0.8-1.8-2.4-3.2-4.2-3.5
		c0,0,0,0,0,0c0,0,0-0.1,0-0.1v-0.2h-0.1v-0.5h0.1v-0.2h0.1c0,0,0,0,0-0.1c0,0,0-0.1,0-0.1h0c0-0.2-0.1-0.3-0.1-0.4
		c-0.1-0.2-0.2-0.4-0.4-0.5v-0.1h-0.3v0.1c-0.3,0.1-0.4,0.4-0.5,0.8h0c0,0,0,0,0,0.1c0,0,0,0.1,0,0.1h0.1v0.2h0.1v0.5h-0.1v0.2
		c0,0,0,0,0,0.1c0,0,0,0.1,0,0.1v0.1c0,0,0,0,0,0c-2.7,0.3-4.9,3.2-4.9,6h-0.1c0,0-0.2,0.1-0.2,0.3c0,0.2,0.2,0.3,0.2,0.3h0.1v3.7
		h-1.7l0.4,0.7l0.2,0.3h0.1v9.3h0v1h0v1.2h0v1h0v12.4h0v1h0v12h0v1h0v6.1h6.6v0.2h6.3v-0.2h81.6v0h169.6v0h12.7v-45h0l0.2-0.3
		l0.4-0.7H656.4z M519.7,20.5c0-0.1,0-0.1,0-0.2c0,0,0.1,0.1,0.1,0.1C519.8,20.4,519.8,20.5,519.7,20.5L519.7,20.5
		C519.7,20.5,519.7,20.5,519.7,20.5C519.7,20.5,519.7,20.5,519.7,20.5z M518.6,20.7C518.6,20.7,518.6,20.7,518.6,20.7L518.6,20.7
		L518.6,20.7z M518.4,20.5c0-0.1,0-0.1,0.1-0.2c0,0.1,0,0.1,0,0.2c0,0.1,0,0.1,0,0.2C518.5,20.7,518.4,20.6,518.4,20.5z M386.8,67.1
		h-0.2v-0.5h0.2V67.1z M387.1,67.1h-0.2v-0.5h0.2V67.1z M387.1,67.1L387.1,67.1l0-0.3h0V67.1z M387.4,67.1h-0.1v-0.3h0.1V67.1z
		 M387.4,67.1L387.4,67.1l0-0.3h0V67.1z M424,67.1h-0.2v-0.5h0.2V67.1z M424.3,67.1H424v-0.5h0.2V67.1z M424.6,67.1h-0.2v-0.5h0.2
		V67.1z M519.1,21.8L519.1,21.8C519,21.8,519,21.8,519.1,21.8C519.1,21.8,519.1,21.8,519.1,21.8L519.1,21.8z M519.2,21.5L519.2,21.5
		c-0.1-0.1-0.1-0.2-0.1-0.3c0,0,0,0,0,0c0,0,0,0,0,0c0,0,0,0,0,0c0,0,0,0,0,0c0,0,0,0,0,0c0,0,0,0,0,0c0,0,0,0.1,0,0.1
		C519.2,21.4,519.2,21.5,519.2,21.5C519.2,21.5,519.2,21.5,519.2,21.5L519.2,21.5z M613.5,67.1h-0.2v-0.5h0.2V67.1z M613.8,67.1
		h-0.2v-0.5h0.2V67.1z M614.1,67.1H614v-0.5h0.2V67.1z M650.7,67.1h-0.2v-0.5h0.2V67.1z M651,67.1h-0.2v-0.5h0.2V67.1z M651.3,67.1
		h-0.2v-0.5h0.2V67.1z"/>
</g>
<text transform="matrix(1 0 0 1 351.4902 264.4141)" class="st0 st1 st7">=</text>
</svg>
